<?xml version="1.0" standalone="no"?>
<!DOCTYPE svg PUBLIC "-//W3C//DTD SVG 20010904//EN"
 "http://www.w3.org/TR/2001/REC-SVG-20010904/DTD/svg10.dtd">
<svg version="1.0" xmlns="http://www.w3.org/2000/svg"
 width="512.000000pt" height="512.000000pt" viewBox="0 0 512.000000 512.000000"
 preserveAspectRatio="xMidYMid meet">
<metadata>
Created by potrace 1.16, written by Peter Selinger 2001-2019
</metadata>
<g transform="translate(0.000000,512.000000) scale(0.100000,-0.100000)"
fill="#FF69B4" stroke="none">
<path d="M2335 3653 c-353 -75 -655 -323 -786 -644 -56 -136 -73 -228 -73
-389 0 -80 4 -162 10 -183 7 -28 9 9 9 140 0 202 16 284 84 444 145 336 499
595 871 638 l75 8 -60 1 c-33 0 -91 -6 -130 -15z"/>
<path d="M2667 3581 c-38 -37 -40 -38 -136 -44 -125 -9 -235 -37 -336 -87 -99
-49 -222 -143 -249 -190 -17 -31 -12 -28 45 26 35 33 85 75 112 93 118 80 284
137 423 143 65 3 69 2 55 -13 -10 -11 -47 -21 -106 -29 -94 -12 -206 -45 -278
-82 -114 -57 -247 -171 -247 -210 0 -14 -11 -35 -25 -48 -14 -13 -25 -20 -25
-16 0 5 -7 3 -15 -4 -8 -7 -15 -17 -15 -22 0 -6 6 -5 15 2 8 7 -5 -17 -29 -53
-120 -179 -157 -444 -92 -666 l24 -85 -95 -92 c-89 -87 -93 -93 -74 -104 29
-15 97 16 166 75 76 65 89 97 77 198 -22 194 -22 353 2 447 30 119 88 224 168
303 40 40 76 71 80 70 4 -2 5 3 2 11 -8 21 79 90 169 134 91 44 141 60 205 64
34 1 53 11 100 50 65 54 78 56 185 32 248 -57 479 -232 609 -461 25 -45 34
-53 58 -53 l29 0 -41 73 c-146 257 -393 434 -684 489 l-61 12 14 34 c8 19 13
36 11 37 -2 2 -20 -14 -41 -34z"/>
<path d="M2510 3390 c0 -4 48 -15 107 -25 174 -28 309 -74 399 -134 24 -17 44
-26 44 -20 0 6 8 6 23 -1 61 -30 -45 43 -122 83 -110 58 -195 83 -318 96 -109
11 -133 11 -133 1z"/>
<path d="M1853 3218 c-43 -46 -118 -161 -153 -235 -54 -113 -94 -263 -70 -263
5 0 10 8 10 18 0 82 99 301 193 425 67 88 76 114 20 55z"/>
<path d="M1842 3110 c-124 -184 -168 -330 -160 -530 5 -118 41 -286 59 -274 5
3 5 13 -1 23 -49 92 -61 372 -21 501 31 103 91 222 152 303 28 37 49 72 47 77
-2 5 -36 -39 -76 -100z"/>
<path d="M2545 3193 c-137 -15 -246 -58 -349 -134 -107 -81 -194 -224 -199
-329 l-2 -45 65 -2 c36 -1 59 0 53 3 -7 3 -13 20 -13 37 0 56 77 197 107 197
7 0 13 6 13 14 0 24 112 118 175 147 102 46 247 66 355 48 30 -5 81 -12 112
-15 54 -6 57 -6 63 17 3 14 2 35 -3 49 -9 23 -9 23 -16 -12 l-7 -37 -53 19
c-92 31 -231 51 -301 43z"/>
<path d="M1914 3148 l-19 -23 23 19 c21 18 27 26 19 26 -2 0 -12 -10 -23 -22z"/>
<path d="M3066 3151 c-3 -5 9 -15 26 -22 36 -15 118 -95 156 -151 30 -46 40
-50 15 -7 -33 56 -122 158 -153 174 -34 18 -37 18 -44 6z"/>
<path d="M3023 3103 c-22 -8 -14 -23 45 -86 32 -34 82 -92 111 -129 29 -38 55
-68 58 -68 3 0 -1 7 -8 16 -7 9 -14 22 -15 29 -3 19 -60 100 -113 160 -25 28
-50 59 -56 67 -5 9 -16 14 -22 11z"/>
<path d="M1826 3038 c-41 -66 -81 -164 -102 -254 -23 -99 -15 -316 14 -399 23
-63 22 -50 -4 80 -21 102 -14 270 15 369 22 73 65 170 101 224 12 17 19 32 16
32 -4 0 -21 -24 -40 -52z"/>
<path d="M2840 2593 l0 -356 27 24 c15 13 31 29 35 34 4 6 8 136 8 291 l0 280
-31 42 c-17 23 -33 42 -35 42 -2 0 -4 -161 -4 -357z"/>
<path d="M3425 2925 c48 -151 50 -167 49 -355 0 -171 -2 -192 -27 -273 -34
-110 -91 -224 -151 -302 l-47 -60 27 -22 28 -22 -30 -42 c-72 -104 -308 -254
-479 -304 -287 -84 -624 -8 -904 203 -92 69 -124 79 -39 11 142 -113 296 -191
465 -236 139 -36 326 -37 464 0 101 26 228 85 319 147 76 52 174 143 201 186
l21 35 -22 24 -22 24 60 89 c62 93 110 204 139 320 26 103 23 361 -5 464 -12
43 -28 90 -37 105 -9 15 -13 19 -10 8z"/>
<path d="M2998 2517 l-3 -393 -27 -42 c-50 -75 -158 -120 -347 -143 -164 -20
-331 11 -445 82 -27 17 -44 23 -36 15 22 -27 167 -104 238 -127 94 -30 266
-37 392 -15 168 29 259 89 290 188 9 30 14 130 16 333 2 160 6 317 8 350 5 59
5 61 -35 103 -22 23 -42 42 -44 42 -2 0 -5 -177 -7 -393z"/>
<path d="M2295 2820 c16 -18 31 -20 161 -20 138 0 190 -8 206 -33 6 -9 8 -9 8
1 0 8 -13 27 -29 43 l-29 29 -168 0 c-166 0 -167 0 -149 -20z"/>
<path d="M2731 2757 c-1 -28 -9 -47 -29 -66 l-27 -28 26 -24 c15 -14 32 -43
39 -66 25 -82 -13 -162 -95 -203 -46 -23 -64 -25 -228 -30 l-178 -5 30 -29 30
-28 168 4 c157 3 173 5 218 28 71 37 89 67 93 155 3 50 -1 90 -12 122 -8 27
-19 84 -24 128 -5 45 -10 63 -11 42z"/>
<path d="M2033 2573 c-39 -5 -39 -10 -13 -97 35 -113 146 -257 233 -302 27
-14 28 -14 18 4 -5 10 -17 24 -25 31 -9 7 -22 25 -29 40 -8 14 -26 47 -41 72
-30 53 -46 126 -35 157 5 12 20 27 34 32 14 5 127 11 251 12 213 3 226 2 240
-16 14 -19 14 -19 14 1 0 11 -9 31 -19 44 l-19 24 -289 1 c-158 1 -303 -1
-320 -3z"/>
<path d="M3610 2348 c-24 -150 -86 -309 -173 -439 -73 -109 -212 -250 -313
-315 -440 -285 -975 -230 -1421 145 -40 34 -73 59 -73 57 0 -3 45 -44 101 -92
235 -202 518 -319 804 -331 190 -8 345 25 530 113 143 67 265 174 377 331 119
165 176 316 194 514 9 103 -10 115 -26 17z"/>
<path d="M2080 2085 c19 -19 36 -35 39 -35 3 0 -10 16 -29 35 -19 19 -36 35
-39 35 -3 0 10 -16 29 -35z"/>
<path d="M1993 1944 c9 -11 17 -30 17 -41 0 -36 162 -131 295 -173 81 -25 243
-37 295 -22 30 9 21 10 -63 11 -205 2 -394 74 -512 195 -27 28 -42 42 -32 30z"/>
<path d="M1830 1873 c0 -14 117 -106 188 -147 33 -19 4 7 -64 60 -43 33 -88
67 -100 77 -13 10 -24 15 -24 10z"/>
</g>
</svg>